<?xml version="1.0" encoding="UTF-8" standalone="no"?>
<!-- Created with Inkscape (http://www.inkscape.org/) -->

<svg
   xmlns:dc="http://purl.org/dc/elements/1.1/"
   xmlns:cc="http://creativecommons.org/ns#"
   xmlns:rdf="http://www.w3.org/1999/02/22-rdf-syntax-ns#"
   xmlns:svg="http://www.w3.org/2000/svg"
   xmlns="http://www.w3.org/2000/svg"
   xmlns:sodipodi="http://sodipodi.sourceforge.net/DTD/sodipodi-0.dtd"
   xmlns:inkscape="http://www.inkscape.org/namespaces/inkscape"
   width="14"
   height="14"
   id="svg2"
   version="1.1"
   inkscape:version="0.48.4 r9939"
   sodipodi:docname="toggle-on-intl.svg">
  <defs
     id="defs4" />
  <sodipodi:namedview
     id="base"
     pagecolor="#ffffff"
     bordercolor="#666666"
     borderopacity="1.0"
     inkscape:pageopacity="0.0"
     inkscape:pageshadow="2"
     inkscape:zoom="44.8"
     inkscape:cx="8.5014156"
     inkscape:cy="7.7097691"
     inkscape:document-units="px"
     inkscape:current-layer="text2985"
     showgrid="false"
     inkscape:window-width="1366"
     inkscape:window-height="768"
     inkscape:window-x="0"
     inkscape:window-y="0"
     inkscape:window-maximized="0" />
  <metadata
     id="metadata7">
    <rdf:RDF>
      <cc:Work
         rdf:about="">
        <dc:format>image/svg+xml</dc:format>
        <dc:type
           rdf:resource="http://purl.org/dc/dcmitype/StillImage" />
        <dc:title />
      </cc:Work>
    </rdf:RDF>
  </metadata>
  <g
     inkscape:label="Layer 1"
     inkscape:groupmode="layer"
     id="layer1"
     transform="translate(0,-1038.3622)">
    <g
       style="font-size:10px;font-style:normal;font-variant:normal;font-weight:normal;font-stretch:normal;line-height:125%;letter-spacing:0px;word-spacing:0px;fill:#fff9f2;fill-opacity:1;stroke:none;font-family:DejaVu Sans;-inkscape-font-specification:DejaVu Sans"
       id="text2985">
      <path
         d="m 4.5625,1045.9335 c 0.165036,0 0.2898731,0.1354 0.3745117,0.4062 0.1692674,0.5078 0.2898728,0.7617 0.3618164,0.7617 0.055009,0 0.1121382,-0.042 0.1713867,-0.1269 1.1891227,-1.9043 2.289382,-3.4447 3.3007813,-4.6211 0.2623624,-0.3047 0.6791914,-0.457 1.2504879,-0.457 0.135409,0 0.226392,0.013 0.27295,0.038 0.04654,0.025 0.06981,0.057 0.06982,0.095 -9e-6,0.059 -0.06983,0.1756 -0.209473,0.3491 -1.6334702,1.9635 -3.1484427,4.0371 -4.5449217,6.2207 -0.097335,0.1523 -0.2962276,0.2285 -0.5966797,0.2285 -0.3046905,0 -0.4845406,-0.013 -0.5395508,-0.038 -0.1438828,-0.063 -0.3131535,-0.3872 -0.5078125,-0.9712 -0.2200541,-0.6474 -0.3300801,-1.0537 -0.3300781,-1.2187 -2e-6,-0.1778 0.1481099,-0.3491 0.4443359,-0.5142 0.1819636,-0.1015 0.3427707,-0.1523 0.4824219,-0.1523"
         style="font-size:13px;-inkscape-font-specification:DejaVu Sans"
         id="path3450" />
    </g>
    <flowRoot
       xml:space="preserve"
       id="flowRoot2989"
       style="font-size:10px;font-style:normal;font-variant:normal;font-weight:normal;font-stretch:normal;line-height:125%;letter-spacing:0px;word-spacing:0px;fill:#000000;fill-opacity:1;stroke:none;font-family:DejaVu Sans;-inkscape-font-specification:DejaVu Sans"
       transform="translate(0,1038.3622)"><flowRegion
         id="flowRegion2991"><rect
           id="rect2993"
           width="9.1071424"
           height="21.964285"
           x="-29.642857"
           y="-26.178572" /></flowRegion><flowPara
         id="flowPara2995" /></flowRoot>  </g>
</svg>
